<svg width="50" height="50" viewBox="0 0 50 49" fill="none" xmlns="http://www.w3.org/2000/svg">
<path d="M39.2857 10.3965C40.272 10.3965 41.0715 9.62074 41.0715 8.66377C41.0715 7.70681 40.272 6.93103 39.2857 6.93103C38.2995 6.93103 37.5 7.70681 37.5 8.66377C37.5 9.62074 38.2995 10.3965 39.2857 10.3965Z" fill="black"/>
<path d="M42.8571 0C35.2823 0.00917034 28.0205 2.93302 22.6643 8.13027C17.3081 13.3275 14.2949 20.3739 14.2854 27.7239V31.1894H1.78535C1.43222 31.1894 1.08704 31.2911 0.79345 31.4815C0.499858 31.6719 0.271036 31.9425 0.13591 32.2591C0.000783847 32.5756 -0.034579 32.924 0.0342922 33.2601C0.103163 33.5961 0.273176 33.9048 0.522838 34.1472L14.8087 48.0091C15.0584 48.2514 15.3766 48.4163 15.7229 48.4832C16.0692 48.55 16.4282 48.5157 16.7545 48.3845C17.0807 48.2534 17.3596 48.0314 17.5558 47.7465C17.7521 47.4616 17.8568 47.1267 17.8569 46.7841V34.6549H21.4284C29.0031 34.6457 36.2649 31.7218 41.6211 26.5246C46.9773 21.3273 49.9905 14.281 50 6.93097V0H42.8571ZM14.2854 42.6012L6.09609 34.6549H14.2854V42.6012ZM17.8569 31.1894V27.7239C17.8574 21.4681 20.3591 15.4564 24.8355 10.9544L38.7106 24.4178C34.0709 28.7614 27.8755 31.1889 21.4284 31.1894H17.8569ZM46.4285 6.93097C46.4309 12.3405 44.5564 17.5932 41.1071 21.843L27.4909 8.62906C31.8701 5.28247 37.2828 3.46362 42.8571 3.46549H46.4285V6.93097Z" fill="black"/>
</svg>
