<svg width="50" height="50" viewBox="0 0 54 53" fill="none" xmlns="http://www.w3.org/2000/svg">
<path d="M4.84391 3.70459L45.9641 43.6047C46.7443 44.3618 47.1827 45.3887 47.1827 46.4594C47.1827 47.5301 46.7443 48.557 45.9641 49.3142C45.1837 50.071 44.1255 50.4961 43.0221 50.4961C41.9187 50.4961 40.8605 50.071 40.0801 49.3142L30.0352 39.3995C29.3779 38.7518 29.0091 37.8794 29.0084 36.9704V36.3715C29.0085 35.9125 28.9146 35.4581 28.7322 35.0346C28.5498 34.6111 28.2826 34.2269 27.9459 33.9045L26.649 32.7424C26.2087 32.3483 25.6734 32.0679 25.0922 31.9271C24.511 31.7863 23.9026 31.7896 23.3231 31.9367C22.4092 32.1681 21.4488 32.1637 20.5372 31.9237C19.6257 31.6838 18.7946 31.2167 18.1265 30.5689L8.59175 21.316C2.93539 15.8274 0.853878 7.53941 4.84391 3.70459Z" stroke="black" stroke-width="3" stroke-linejoin="round"/>
<path d="M43.0713 2L34.4494 10.366C33.786 11.0096 33.2597 11.7738 32.9006 12.6148C32.5416 13.4558 32.3568 14.3572 32.3568 15.2675V16.8768C32.3568 17.1045 32.3106 17.33 32.2208 17.5404C32.131 17.7507 31.9993 17.9418 31.8333 18.1028L30.571 19.3276M34.1425 22.7932L35.4048 21.5683C35.5707 21.4072 35.7676 21.2795 35.9844 21.1923C36.2012 21.1052 36.4336 21.0604 36.6682 21.0604H38.3267C39.2649 21.0604 40.1939 20.8811 41.0606 20.5327C41.9274 20.1842 42.7149 19.6736 43.3782 19.0298L52 10.6638M47.5356 6.33191L38.6069 14.9957M20.7494 38.388L9.61973 49.2481C8.78253 50.0602 7.64721 50.5164 6.46342 50.5164C5.27963 50.5164 4.1443 50.0602 3.30711 49.2481C2.47017 48.4358 2 47.3341 2 46.1854C2 45.0368 2.47017 43.9351 3.30711 43.1228L12.7135 34.0561" stroke="black" stroke-width="3" stroke-linecap="round" stroke-linejoin="round"/>
</svg>
