<svg width="21" height="20" viewBox="0 0 21 20" fill="none" xmlns="http://www.w3.org/2000/svg">
<path d="M10.1984 4.87225C7.30501 4.87225 4.97123 7.16166 4.97123 10C4.97123 12.8383 7.30501 15.1277 10.1984 15.1277C13.0917 15.1277 15.4255 12.8383 15.4255 10C15.4255 7.16166 13.0917 4.87225 10.1984 4.87225ZM10.1984 13.3337C8.3286 13.3337 6.80004 11.8387 6.80004 10C6.80004 8.16133 8.32405 6.66629 10.1984 6.66629C12.0727 6.66629 13.5967 8.16133 13.5967 10C13.5967 11.8387 12.0681 13.3337 10.1984 13.3337ZM16.8585 4.6625C16.8585 5.32746 16.3126 5.85853 15.6393 5.85853C14.9615 5.85853 14.4201 5.32299 14.4201 4.6625C14.4201 4.00201 14.966 3.46647 15.6393 3.46647C16.3126 3.46647 16.8585 4.00201 16.8585 4.6625ZM20.3205 5.87638C20.2432 4.27424 19.8701 2.85507 18.6737 1.68582C17.4818 0.516568 16.0351 0.150619 14.4019 0.070289C12.7187 -0.0234297 7.6735 -0.0234297 5.99027 0.070289C4.36162 0.146156 2.91495 0.512105 1.71849 1.68136C0.52203 2.85061 0.153538 4.26978 0.0716512 5.87192C-0.0238837 7.52315 -0.0238837 12.4724 0.0716512 14.1236C0.148989 15.7258 0.52203 17.1449 1.71849 18.3142C2.91495 19.4834 4.35707 19.8494 5.99027 19.9297C7.6735 20.0234 12.7187 20.0234 14.4019 19.9297C16.0351 19.8538 17.4818 19.4879 18.6737 18.3142C19.8656 17.1449 20.2386 15.7258 20.3205 14.1236C20.416 12.4724 20.416 7.52761 20.3205 5.87638ZM18.1459 15.8953C17.7911 16.7701 17.1042 17.4439 16.208 17.7965C14.8659 18.3186 11.6814 18.1981 10.1984 18.1981C8.71529 18.1981 5.52624 18.3142 4.18875 17.7965C3.29709 17.4484 2.61015 16.7745 2.25076 15.8953C1.71849 14.5788 1.84132 11.4549 1.84132 10C1.84132 8.54513 1.72304 5.41671 2.25076 4.10465C2.6056 3.22995 3.29254 2.55606 4.18875 2.2035C5.53079 1.68136 8.71529 1.80185 10.1984 1.80185C11.6814 1.80185 14.8705 1.68582 16.208 2.2035C17.0996 2.5516 17.7866 3.22548 18.1459 4.10465C18.6782 5.42118 18.5554 8.54513 18.5554 10C18.5554 11.4549 18.6782 14.5833 18.1459 15.8953Z" fill="white"/>
</svg>
