<svg width="50" height="50" viewBox="0 0 50 39" fill="black" xmlns="http://www.w3.org/2000/svg">
<path d="M40.3846 0C40.7687 8.59062e-05 41.1439 0.110687 41.462 0.317554C41.78 0.524422 42.0264 0.81808 42.1692 1.1607C43.4462 4.22139 45.8615 5.53734 48.0769 5.53734C48.587 5.53734 49.0761 5.73207 49.4367 6.07868C49.7974 6.42529 50 6.8954 50 7.38559C50 7.87577 49.7974 8.34588 49.4367 8.69249C49.0761 9.03911 48.587 9.23383 48.0769 9.23383C45.1731 9.23383 42.3769 7.94006 40.3846 5.52625C38.3923 7.94006 35.5962 9.23383 32.6923 9.23383C29.7885 9.23383 26.9923 7.94006 25 5.52625C23.0077 7.94006 20.2115 9.23383 17.3077 9.23383C14.4038 9.23383 11.6077 7.94006 9.61538 5.52995C7.62692 7.94745 4.83077 9.24122 1.92308 9.24122C1.41305 9.24122 0.923903 9.0465 0.563256 8.69989C0.202609 8.35327 0 7.88316 0 7.39298C0 6.90279 0.202609 6.43269 0.563256 6.08607C0.923903 5.73946 1.41305 5.54473 1.92308 5.54473C4.13846 5.54473 6.55385 4.22878 7.83077 1.16439C7.97381 0.821977 8.22022 0.528546 8.53827 0.321879C8.85632 0.115212 9.23146 0.00476878 9.61538 0.00476878C9.99931 0.00476878 10.3744 0.115212 10.6925 0.321879C11.0105 0.528546 11.257 0.821977 11.4 1.16439C12.6769 4.22139 15.0923 5.53734 17.3077 5.53734C19.5231 5.53734 21.9385 4.22139 23.2154 1.1607C23.3584 0.81828 23.6048 0.52485 23.9229 0.318183C24.2409 0.111515 24.6161 0.00107256 25 0.00107256C25.3839 0.00107256 25.7591 0.111515 26.0771 0.318183C26.3952 0.52485 26.6416 0.81828 26.7846 1.1607C28.0615 4.22139 30.4769 5.53734 32.6923 5.53734C34.9077 5.53734 37.3231 4.22139 38.6 1.1607C38.7429 0.81808 38.9892 0.524422 39.3073 0.317554C39.6253 0.110687 40.0006 8.59062e-05 40.3846 0ZM40.3846 29.5719C40.7687 29.572 41.1439 29.6826 41.462 29.8895C41.78 30.0963 42.0264 30.39 42.1692 30.7326C43.4462 33.7933 45.8615 35.1093 48.0769 35.1093C48.587 35.1093 49.0761 35.304 49.4367 35.6506C49.7974 35.9972 50 36.4673 50 36.9575C50 37.4477 49.7974 37.9178 49.4367 38.2644C49.0761 38.611 48.587 38.8057 48.0769 38.8057C45.1731 38.8057 42.3769 37.512 40.3846 35.0982C38.3923 37.512 35.5962 38.8057 32.6923 38.8057C29.7885 38.8057 26.9923 37.512 25 35.0982C23.0077 37.512 20.2115 38.8057 17.3077 38.8057C14.4038 38.8057 11.6077 37.512 9.61538 35.1019C7.62692 37.5194 4.83077 38.8131 1.92308 38.8131C1.41305 38.8131 0.923903 38.6184 0.563256 38.2718C0.202609 37.9252 0 37.4551 0 36.9649C0 36.4747 0.202609 36.0046 0.563256 35.658C0.923903 35.3114 1.41305 35.1167 1.92308 35.1167C4.13846 35.1167 6.55385 33.8007 7.83077 30.7363C7.97381 30.3939 8.22022 30.1005 8.53827 29.8938C8.85632 29.6871 9.23146 29.5767 9.61538 29.5767C9.99931 29.5767 10.3744 29.6871 10.6925 29.8938C11.0105 30.1005 11.257 30.3939 11.4 30.7363C12.6769 33.7933 15.0923 35.1093 17.3077 35.1093C19.5231 35.1093 21.9385 33.7933 23.2154 30.7326C23.3584 30.3902 23.6048 30.0968 23.9229 29.8901C24.2409 29.6834 24.6161 29.573 25 29.573C25.3839 29.573 25.7591 29.6834 26.0771 29.8901C26.3952 30.0968 26.6416 30.3902 26.7846 30.7326C28.0615 33.7933 30.4769 35.1093 32.6923 35.1093C34.9077 35.1093 37.3231 33.7933 38.6 30.7326C38.7429 30.39 38.9892 30.0963 39.3073 29.8895C39.6253 29.6826 40.0006 29.572 40.3846 29.5719ZM42.1692 15.9467C42.0262 15.6042 41.7798 15.3108 41.4617 15.1041C41.1437 14.8975 40.7685 14.787 40.3846 14.787C40.0007 14.787 39.6256 14.8975 39.3075 15.1041C38.9894 15.3108 38.743 15.6042 38.6 15.9467C37.3231 19.0073 34.9077 20.3233 32.6923 20.3233C30.4769 20.3233 28.0615 19.0073 26.7846 15.9467C26.6416 15.6042 26.3952 15.3108 26.0771 15.1041C25.7591 14.8975 25.3839 14.787 25 14.787C24.6161 14.787 24.2409 14.8975 23.9229 15.1041C23.6048 15.3108 23.3584 15.6042 23.2154 15.9467C21.9385 19.0073 19.5231 20.3233 17.3077 20.3233C15.0923 20.3233 12.6769 19.0073 11.4 15.9467C11.257 15.6042 11.0105 15.3108 10.6925 15.1041C10.3744 14.8975 9.99931 14.787 9.61538 14.787C9.23146 14.787 8.85632 14.8975 8.53827 15.1041C8.22022 15.3108 7.97381 15.6042 7.83077 15.9467C6.55385 19.0184 4.13846 20.3307 1.92308 20.3307C1.41305 20.3307 0.923903 20.5254 0.563256 20.872C0.202609 21.2186 0 21.6888 0 22.1789C0 22.6691 0.202609 23.1392 0.563256 23.4858C0.923903 23.8325 1.41305 24.0272 1.92308 24.0272C4.83077 24.0272 7.62692 22.7334 9.61538 20.3159C11.6077 22.7297 14.4038 24.0198 17.3077 24.0198C20.2115 24.0198 23.0115 22.726 25 20.3122C26.9923 22.726 29.7885 24.0198 32.6923 24.0198C35.5962 24.0198 38.3962 22.726 40.3846 20.3122C42.3769 22.726 45.1731 24.0198 48.0769 24.0198C48.587 24.0198 49.0761 23.8251 49.4367 23.4784C49.7974 23.1318 50 22.6617 50 22.1715C50 21.6814 49.7974 21.2113 49.4367 20.8646C49.0761 20.518 48.587 20.3233 48.0769 20.3233C45.8615 20.3233 43.4462 19.0073 42.1692 15.9467Z" fill="black"/>
</svg>
